# xmcd CD database file
#
# Track frame offsets:
#	150
#	16730
#	26337
#	41562
#	52647
#	65300
#	89052
#	100895
#	111047
#	123912
#	136762
#	150480
#	164125
#	174365
#	187635
#	200782
#	213985
#	226145
#	237645
#	252435
#
# Disc length: 3552 seconds
#
# Revision: 0
# Processed by: cddbd v1.5.1PL2 Copyright (c) Steve Scherf et al.
# Submitted via: CDex 1.51
#
DISCID=010dde14
DTITLE=Variés - Les étoiles du negro spiritual [CD3)
DYEAR=1998
DGENRE=Blues
TTITLE0=John William - Mississipi (old man river)
TTITLE1=John William - Ne pleurez pas
TTITLE2=John William - Sometimes I feel (le coton)
TTITLE3=John William - Je t'ai rencontré seigneur
TTITLE4=John William - Les mains
TTITLE5=John William - Le chapeau (O when the saints)
TTITLE6=John William - La vérité
TTITLE7=John William - Dieu n'a pas de préférence
TTITLE8=John William - Avec leur musique
TTITLE9=John William - Applaudissons, applaudissons (abolicao)
TTITLE10=John William - La vie
TTITLE11=John William - L'amour
TTITLE12=John William - L'envie
TTITLE13=John William - Liberté-miserere
TTITLE14=John William - Je porte plein d'espoir
TTITLE15=John William - Chantez tous avec moi Noël
TTITLE16=John William - La bonne nouvelle
TTITLE17=John William - Prière simple
TTITLE18=John William - Vous qui passez
TTITLE19=John William - Il est vivant, il est ressuscité
EXTD=YEAR: 1998
EXTT0=
EXTT1=
EXTT2=
EXTT3=
EXTT4=
EXTT5=
EXTT6=
EXTT7=
EXTT8=
EXTT9=
EXTT10=
EXTT11=
EXTT12=
EXTT13=
EXTT14=
EXTT15=
EXTT16=
EXTT17=
EXTT18=
EXTT19=
PLAYORDER=
